# xmcd
#
# Track frame offsets:
#	150
#	14195
#	30154
#	44233
#	60964
#	73382
#
# Disc length: 1176 seconds
#
# Revision: 1
# Processed by: cddbd v1.5.2PL0 Copyright (c) Steve Scherf et al.
# Submitted via: EasyCDDAExtractor 12.0.1.1
#
DISCID=53049606
DTITLE=Robynn Shayne - Cofee Days and Whiskey Nights
DYEAR=2018
DGENRE=Country
TTITLE0=Whiskey and Bad Decisions
TTITLE1=Nothin Crazy About You, But me
TTITLE2=Two Words, One Finger
TTITLE3=Hell Broke Loose
TTITLE4=Coffee Days and Whiskey Nights
TTITLE5=Movin on
EXTD=
EXTT0=
EXTT1=
EXTT2=
EXTT3=
EXTT4=
EXTT5=
PLAYORDER=
